<svg xmlns="http://www.w3.org/2000/svg" version="1.2" viewBox="0 0 836 770" width="836" height="770" transform="matrix(1, 0, 0, 1, 0, 0)"><style>.a{opacity:.98;fill:#1d4ed8}</style><path fill-rule="evenodd" class="a" d="m0 338l4-41 10-50 21-57 30-54 33-44 39-39 59-43 25-10h8l-42 214-11 14-15 30-12 35-6 32-2 55 13 62 27 60 11 13 5 7c0 0 31.3 32.4 45 45 13.7 12.6 40 27 40 27 0 0 57.5 24.5 86 29 28.5 4.5 68 4 68 4l41-6 48-15 40-20 28-20 29-26 25-29 17-26 20-44 10-35 4-29-4-68-9-37-22-45-23-29-23-30-9-26 1-26 8-20 12-15 22-14c0 0 18-3.9 23-5 5-1.1 32 0.1 47 15 15 14.9 11 11 11 11l29 34 17 23 23 42 17 45 12 45 6 45v66l-6 43-16 60-24 56-30 47-44 52-47 40-43 29-42 21-45 16-51 12-66 6h-31l-30-2-71-14-36-13-32-14-28-15-14-9-11-7-14-13-24-21-22-21-7-8-26-33-16-27-38-79-16-62-6-57zm258 252h1v-1h-1zm452 26h1v-1h-1zm-298 129h1v-1h-1z" fill="#0f0606"/><path fill-rule="evenodd" class="a" d="m416 176l-45 22-20 14-35 35-11 13-8 11-18 30c0 0-9 14.1-17 34-8 19.9-9 1-9 1l-27-194 3-17 30-30 58-38 46-22 59-18 58-10 67-1 41 5 96 26c0 0 2.3 0 1 8-1.3 8 7.7 1.4-5 5-12.7 3.6-43.7 7.4-51 13-7.3 5.6-14.7 12.4-19 18-4.3 5.6-7.7 12-10 16-2.3 4-4.3 8.4-5 15-0.7 6.6 0 20 0 20 0 0 3 31.1 2 24-1-7.1-31-4-31-4l-72 4v-1h-1v1l-55 10-16 5z" fill="#0f0606"/></svg>